<svg width="21" height="21" viewBox="0 0 21 21" fill="none" xmlns="http://www.w3.org/2000/svg">
<path d="M3.08771 6.1565L10.002 9.61365M10.002 9.61365L16.9163 6.1565M10.002 9.61365L10.002 18.0136M6.43056 4.2565L13.5734 7.82793M10.6377 2.79222L16.352 5.64936C16.59 5.76763 16.7903 5.94995 16.9304 6.17582C17.0704 6.40169 17.1447 6.66216 17.1448 6.92793V13.7351C17.1447 14.0008 17.0704 14.2613 16.9304 14.4872C16.7903 14.7131 16.59 14.8954 16.352 15.0136L10.6377 17.8708C10.4392 17.9701 10.2204 18.0218 9.99842 18.0218C9.77649 18.0218 9.55761 17.9701 9.35913 17.8708L3.64485 15.0136C3.40708 14.8938 3.20753 14.71 3.0687 14.4828C2.92987 14.2556 2.85728 13.9942 2.85913 13.7279V6.92793C2.85928 6.66216 2.93355 6.40169 3.07362 6.17582C3.21369 5.94995 3.41398 5.76763 3.65199 5.64936L9.36628 2.79222C9.56382 2.69406 9.78141 2.64297 10.002 2.64297C10.2226 2.64297 10.4402 2.69406 10.6377 2.79222Z" stroke="#5C6480" stroke-linecap="round" stroke-linejoin="round"/>
</svg>
