<svg width="41" height="41" viewBox="0 0 41 41" fill="none" xmlns="http://www.w3.org/2000/svg">
<path d="M20.002 23.2273C21.5082 23.2273 22.7292 22.0062 22.7292 20.5C22.7292 18.9938 21.5082 17.7727 20.002 17.7727C18.4957 17.7727 17.2747 18.9938 17.2747 20.5C17.2747 22.0062 18.4957 23.2273 20.002 23.2273Z" stroke="#5C6480" stroke-linecap="round" stroke-linejoin="round"/>
<path d="M26.7292 23.2273C26.6082 23.5015 26.5721 23.8056 26.6256 24.1005C26.6791 24.3954 26.8196 24.6676 27.0292 24.8818L27.0838 24.9364C27.2528 25.1052 27.3869 25.3057 27.4784 25.5265C27.5699 25.7472 27.617 25.9838 27.617 26.2227C27.617 26.4617 27.5699 26.6983 27.4784 26.919C27.3869 27.1397 27.2528 27.3402 27.0838 27.5091C26.9149 27.6781 26.7144 27.8122 26.4937 27.9037C26.2729 27.9952 26.0363 28.0423 25.7974 28.0423C25.5585 28.0423 25.3219 27.9952 25.1012 27.9037C24.8804 27.8122 24.6799 27.6781 24.511 27.5091L24.4565 27.4545C24.2422 27.245 23.9701 27.1044 23.6752 27.0509C23.3803 26.9974 23.0761 27.0335 22.802 27.1545C22.5331 27.2698 22.3038 27.4611 22.1422 27.705C21.9807 27.9489 21.894 28.2347 21.8929 28.5273V28.6818C21.8929 29.164 21.7013 29.6265 21.3603 29.9675C21.0194 30.3084 20.5569 30.5 20.0747 30.5C19.5925 30.5 19.13 30.3084 18.789 29.9675C18.4481 29.6265 18.2565 29.164 18.2565 28.6818V28.6C18.2495 28.2991 18.1521 28.0073 17.977 27.7625C17.8019 27.5176 17.5572 27.3312 17.2747 27.2273C17.0005 27.1063 16.6963 27.0702 16.4014 27.1236C16.1065 27.1771 15.8344 27.3177 15.6201 27.5273L15.5656 27.5818C15.3967 27.7509 15.1962 27.885 14.9755 27.9765C14.7548 28.068 14.5182 28.1151 14.2792 28.1151C14.0403 28.1151 13.8037 28.068 13.583 27.9765C13.3622 27.885 13.1617 27.7509 12.9929 27.5818C12.8238 27.413 12.6897 27.2124 12.5982 26.9917C12.5067 26.771 12.4596 26.5344 12.4596 26.2955C12.4596 26.0565 12.5067 25.8199 12.5982 25.5992C12.6897 25.3785 12.8238 25.178 12.9929 25.0091L13.0474 24.9545C13.257 24.7403 13.3976 24.4682 13.451 24.1733C13.5045 23.8784 13.4684 23.5742 13.3474 23.3C13.2322 23.0311 13.0408 22.8018 12.7969 22.6403C12.553 22.4788 12.2672 22.3921 11.9747 22.3909H11.8201C11.3379 22.3909 10.8755 22.1994 10.5345 21.8584C10.1935 21.5174 10.002 21.0549 10.002 20.5727C10.002 20.0905 10.1935 19.6281 10.5345 19.2871C10.8755 18.9461 11.3379 18.7545 11.8201 18.7545H11.902C12.2029 18.7475 12.4947 18.6501 12.7395 18.475C12.9843 18.2999 13.1708 18.0552 13.2747 17.7727C13.3957 17.4985 13.4318 17.1944 13.3783 16.8995C13.3248 16.6046 13.1843 16.3324 12.9747 16.1182L12.9201 16.0636C12.7511 15.8948 12.617 15.6943 12.5255 15.4735C12.434 15.2528 12.3869 15.0162 12.3869 14.7773C12.3869 14.5383 12.434 14.3017 12.5255 14.081C12.617 13.8603 12.7511 13.6598 12.9201 13.4909C13.089 13.3219 13.2895 13.1878 13.5102 13.0963C13.731 13.0048 13.9676 12.9577 14.2065 12.9577C14.4454 12.9577 14.682 13.0048 14.9028 13.0963C15.1235 13.1878 15.324 13.3219 15.4929 13.4909L15.5474 13.5455C15.7617 13.755 16.0338 13.8956 16.3287 13.9491C16.6236 14.0026 16.9278 13.9665 17.202 13.8455H17.2747C17.5436 13.7302 17.7729 13.5389 17.9344 13.295C18.0959 13.0511 18.1826 12.7653 18.1838 12.4727V12.3182C18.1838 11.836 18.3753 11.3735 18.7163 11.0325C19.0573 10.6916 19.5197 10.5 20.002 10.5C20.4842 10.5 20.9466 10.6916 21.2876 11.0325C21.6286 11.3735 21.8201 11.836 21.8201 12.3182V12.4C21.8213 12.6925 21.908 12.9783 22.0695 13.2222C22.231 13.4661 22.4603 13.6575 22.7292 13.7727C23.0034 13.8937 23.3076 13.9298 23.6025 13.8764C23.8974 13.8229 24.1695 13.6823 24.3838 13.4727L24.4383 13.4182C24.6072 13.2491 24.8077 13.115 25.0284 13.0235C25.2491 12.932 25.4857 12.8849 25.7247 12.8849C25.9636 12.8849 26.2002 12.932 26.4209 13.0235C26.6417 13.115 26.8422 13.2491 27.011 13.4182C27.1801 13.587 27.3142 13.7876 27.4057 14.0083C27.4972 14.229 27.5443 14.4656 27.5443 14.7045C27.5443 14.9435 27.4972 15.1801 27.4057 15.4008C27.3142 15.6215 27.1801 15.822 27.011 15.9909L26.9565 16.0455C26.7469 16.2597 26.6063 16.5318 26.5529 16.8267C26.4994 17.1216 26.5355 17.4258 26.6565 17.7V17.7727C26.7717 18.0416 26.9631 18.2709 27.207 18.4324C27.4509 18.594 27.7367 18.6807 28.0292 18.6818H28.1838C28.666 18.6818 29.1284 18.8734 29.4694 19.2144C29.8104 19.5553 30.002 20.0178 30.002 20.5C30.002 20.9822 29.8104 21.4447 29.4694 21.7856C29.1284 22.1266 28.666 22.3182 28.1838 22.3182H28.102C27.8094 22.3193 27.5236 22.406 27.2797 22.5676C27.0358 22.7291 26.8445 22.9584 26.7292 23.2273Z" stroke="#5C6480" stroke-linecap="round" stroke-linejoin="round"/>
</svg>
