<svg width="51" height="51" viewBox="0 0 51 51" fill="none" xmlns="http://www.w3.org/2000/svg">
<rect x="0.00195312" y="0.5" width="50" height="50" rx="25" fill="white"/>
<path d="M31.002 21.5006C31.002 18.1866 28.3157 15.5 25.002 15.5C21.6882 15.5 19.002 18.1866 19.002 21.5006C19.002 28.5013 16.002 30.5015 16.002 30.5015H34.002C34.002 30.5015 31.002 28.5013 31.002 21.5006" stroke="#5C6480" stroke-linecap="round" stroke-linejoin="round"/>
<path d="M26.7315 34.5017C26.3737 35.1185 25.7146 35.4981 25.0015 35.4981C24.2884 35.4981 23.6293 35.1185 23.2715 34.5017" stroke="#5C6480" stroke-linecap="round" stroke-linejoin="round"/>
<rect x="24.002" y="6.5" width="26" height="20" rx="8" fill="#FF0F00"/>
<path d="M29.9587 19.3352V14.4205H31.0738V19.3352H29.9587ZM28.0589 17.4354V16.3203H32.9736V17.4354H28.0589ZM37.053 13.1278C37.401 13.1302 37.7396 13.1918 38.0686 13.3125C38.4001 13.4309 38.6984 13.625 38.9635 13.8949C39.2287 14.1624 39.4394 14.5211 39.5956 14.9709C39.7519 15.4207 39.83 15.977 39.83 16.6399C39.8324 17.2649 39.7661 17.8236 39.6311 18.3161C39.4986 18.8061 39.308 19.2204 39.0594 19.5589C38.8108 19.8975 38.5113 20.1555 38.161 20.3331C37.8106 20.5107 37.4164 20.5994 36.9784 20.5994C36.5191 20.5994 36.1119 20.5095 35.7568 20.3295C35.4041 20.1496 35.1188 19.9034 34.901 19.5909C34.6832 19.2784 34.5494 18.9209 34.4997 18.5185H35.7959C35.8622 18.8073 35.9971 19.0369 36.2007 19.2074C36.4067 19.3755 36.6659 19.4595 36.9784 19.4595C37.4827 19.4595 37.8709 19.2405 38.1432 18.8026C38.4155 18.3646 38.5516 17.7562 38.5516 16.9773H38.5019C38.3859 17.1856 38.2355 17.3655 38.0509 17.517C37.8662 17.6662 37.6567 17.781 37.4223 17.8615C37.1903 17.942 36.9441 17.9822 36.6837 17.9822C36.2575 17.9822 35.874 17.8804 35.5331 17.6768C35.1946 17.4732 34.9259 17.1939 34.727 16.8388C34.5305 16.4837 34.4311 16.0777 34.4287 15.6207C34.4287 15.1473 34.5376 14.7223 34.7554 14.3459C34.9756 13.9671 35.2822 13.6688 35.6752 13.451C36.0682 13.2308 36.5274 13.1231 37.053 13.1278ZM37.0566 14.1932C36.8009 14.1932 36.57 14.2559 36.3641 14.3814C36.1605 14.5045 35.9995 14.6726 35.8811 14.8857C35.7651 15.0964 35.7071 15.3319 35.7071 15.5923C35.7095 15.8504 35.7675 16.0848 35.8811 16.2955C35.9971 16.5062 36.1546 16.6731 36.3534 16.7962C36.5547 16.9193 36.7843 16.9808 37.0423 16.9808C37.2341 16.9808 37.4128 16.9441 37.5786 16.8707C37.7443 16.7973 37.8887 16.6955 38.0118 16.5653C38.1373 16.4328 38.2343 16.2824 38.303 16.1143C38.374 15.9463 38.4084 15.7687 38.406 15.5817C38.406 15.3331 38.3468 15.1035 38.2284 14.8928C38.1124 14.6821 37.9526 14.5128 37.749 14.3849C37.5478 14.2571 37.317 14.1932 37.0566 14.1932ZM43.5374 13.1278C43.8854 13.1302 44.2239 13.1918 44.553 13.3125C44.8844 13.4309 45.1827 13.625 45.4479 13.8949C45.713 14.1624 45.9237 14.5211 46.08 14.9709C46.2362 15.4207 46.3144 15.977 46.3144 16.6399C46.3167 17.2649 46.2504 17.8236 46.1155 18.3161C45.9829 18.8061 45.7923 19.2204 45.5438 19.5589C45.2952 19.8975 44.9957 20.1555 44.6453 20.3331C44.295 20.5107 43.9008 20.5994 43.4628 20.5994C43.0035 20.5994 42.5963 20.5095 42.2412 20.3295C41.8885 20.1496 41.6032 19.9034 41.3854 19.5909C41.1676 19.2784 41.0338 18.9209 40.9841 18.5185H42.2803C42.3466 18.8073 42.4815 19.0369 42.6851 19.2074C42.8911 19.3755 43.1503 19.4595 43.4628 19.4595C43.9671 19.4595 44.3553 19.2405 44.6276 18.8026C44.8998 18.3646 45.036 17.7562 45.036 16.9773H44.9862C44.8702 17.1856 44.7199 17.3655 44.5352 17.517C44.3506 17.6662 44.1411 17.781 43.9067 17.8615C43.6747 17.942 43.4285 17.9822 43.1681 17.9822C42.7419 17.9822 42.3584 17.8804 42.0175 17.6768C41.6789 17.4732 41.4102 17.1939 41.2114 16.8388C41.0149 16.4837 40.9155 16.0777 40.9131 15.6207C40.9131 15.1473 41.022 14.7223 41.2398 14.3459C41.46 13.9671 41.7665 13.6688 42.1595 13.451C42.5525 13.2308 43.0118 13.1231 43.5374 13.1278ZM43.5409 14.1932C43.2852 14.1932 43.0544 14.2559 42.8485 14.3814C42.6449 14.5045 42.4839 14.6726 42.3655 14.8857C42.2495 15.0964 42.1915 15.3319 42.1915 15.5923C42.1939 15.8504 42.2519 16.0848 42.3655 16.2955C42.4815 16.5062 42.6389 16.6731 42.8378 16.7962C43.039 16.9193 43.2687 16.9808 43.5267 16.9808C43.7185 16.9808 43.8972 16.9441 44.0629 16.8707C44.2287 16.7973 44.3731 16.6955 44.4962 16.5653C44.6217 16.4328 44.7187 16.2824 44.7874 16.1143C44.8584 15.9463 44.8927 15.7687 44.8904 15.5817C44.8904 15.3331 44.8312 15.1035 44.7128 14.8928C44.5968 14.6821 44.437 14.5128 44.2334 14.3849C44.0322 14.2571 43.8013 14.1932 43.5409 14.1932Z" fill="white"/>
</svg>
