<svg width="19" height="19" viewBox="0 0 19 19" fill="none" xmlns="http://www.w3.org/2000/svg">
<path d="M10.2877 3.07148H5.14481C4.80382 3.07148 4.4768 3.20694 4.23568 3.44806C3.99456 3.68917 3.8591 4.0162 3.8591 4.35719V14.6429C3.8591 14.9839 3.99456 15.3109 4.23568 15.552C4.4768 15.7932 4.80382 15.9286 5.14481 15.9286H12.8591C13.2001 15.9286 13.5271 15.7932 13.7682 15.552C14.0094 15.3109 14.1448 14.9839 14.1448 14.6429V6.92862M10.2877 3.07148L14.1448 6.92862M10.2877 3.07148V6.92862H14.1448M11.5734 10.1429H6.43053M11.5734 12.7143H6.43053M7.71624 7.57148H6.43053" stroke="#5C6480" stroke-linecap="round" stroke-linejoin="round"/>
</svg>
