<svg width="141" height="157" viewBox="0 0 141 157" fill="none" xmlns="http://www.w3.org/2000/svg">
<mask id="path-1-inside-1_106_2" fill="white">
<path fill-rule="evenodd" clip-rule="evenodd" d="M128.897 5L123.502 0L118.107 5H6.00195C2.68824 5 0.00195312 7.6863 0.00195312 11V151C0.00195312 154.314 2.68825 157 6.00196 157H134.002C137.316 157 140.002 154.314 140.002 151V11C140.002 7.68629 137.316 5 134.002 5H128.897Z"/>
</mask>
<path fill-rule="evenodd" clip-rule="evenodd" d="M128.897 5L123.502 0L118.107 5H6.00195C2.68824 5 0.00195312 7.6863 0.00195312 11V151C0.00195312 154.314 2.68825 157 6.00196 157H134.002C137.316 157 140.002 154.314 140.002 151V11C140.002 7.68629 137.316 5 134.002 5H128.897Z" fill="white"/>
<path d="M123.502 0L124.182 -0.733463L123.502 -1.36339L122.822 -0.733463L123.502 0ZM128.897 5L128.217 5.73346L128.505 6H128.897V5ZM118.107 5V6H118.499L118.786 5.73346L118.107 5ZM122.822 0.733463L128.217 5.73346L129.577 4.26654L124.182 -0.733463L122.822 0.733463ZM118.786 5.73346L124.182 0.733463L122.822 -0.733463L117.427 4.26654L118.786 5.73346ZM6.00195 6H118.107V4H6.00195V6ZM1.00195 11C1.00195 8.23858 3.24053 6 6.00195 6V4C2.13596 4 -0.998047 7.13401 -0.998047 11H1.00195ZM1.00195 151V11H-0.998047V151H1.00195ZM6.00196 156C3.24053 156 1.00195 153.761 1.00195 151H-0.998047C-0.998047 154.866 2.13596 158 6.00196 158V156ZM134.002 156H6.00196V158H134.002V156ZM139.002 151C139.002 153.761 136.763 156 134.002 156V158C137.868 158 141.002 154.866 141.002 151H139.002ZM139.002 11V151H141.002V11H139.002ZM134.002 6C136.763 6 139.002 8.23858 139.002 11H141.002C141.002 7.134 137.868 4 134.002 4V6ZM128.897 6H134.002V4H128.897V6Z" fill="#D2D9E2" mask="url(#path-1-inside-1_106_2)"/>
</svg>
