<svg width="19" height="19" viewBox="0 0 19 19" fill="none" xmlns="http://www.w3.org/2000/svg">
<path d="M15.9054 8.34777C15.7349 7.32483 15.3381 6.35288 14.7438 5.50299C14.7381 5.49377 14.7318 5.48496 14.7249 5.47662C13.4601 3.67591 11.4217 2.57532 9.22226 2.5056H9.21713C9.14549 2.50327 9.07409 2.5 9.00199 2.5C7.21066 2.4992 5.48773 3.18784 4.19045 4.42312C4.1794 4.43173 4.16924 4.44143 4.16012 4.45206C2.5718 5.96563 1.79032 8.13963 2.05149 10.318C2.05149 10.3229 2.05149 10.3274 2.05313 10.332C2.34812 12.7641 3.89036 14.8661 6.12174 15.8774C6.12734 15.88 6.13247 15.8828 6.13831 15.8849C6.82334 16.1941 7.55411 16.39 8.302 16.4647C8.53206 16.488 8.76539 16.4997 9.00199 16.4997C10.9076 16.5002 12.7305 15.7214 14.0476 14.3442C14.0603 14.3334 14.0719 14.3212 14.0821 14.308C15.5928 12.7197 16.2684 10.5133 15.9061 8.35151L15.9054 8.34777ZM12.4894 6.57445C12.4825 6.50864 12.47 6.44353 12.452 6.37985C13.0898 6.13557 13.7528 5.96339 14.4288 5.86652C14.8365 6.47267 15.139 7.14316 15.3239 7.84984C14.4548 7.27336 13.4974 6.84286 12.4894 6.57538V6.57445ZM11.3353 9.0333C11.3363 10.1673 11.1295 11.2918 10.7252 12.3513C10.6204 12.3188 10.5116 12.3015 10.402 12.3C10.0213 12.3005 9.66498 12.487 9.44766 12.7995C8.92879 12.5155 8.43759 12.1837 7.98046 11.8083C8.17327 11.3448 8.04322 10.8098 7.65917 10.4865C8.34962 9.27766 9.29982 8.23717 10.4412 7.44011C10.6436 7.68554 10.9381 7.83685 11.2555 7.85848C11.3071 8.24798 11.3338 8.64039 11.3353 9.0333ZM8.22383 15.9852C7.61132 15.9128 7.0123 15.7533 6.4449 15.5115C6.43907 15.3825 6.43534 15.2486 6.43534 15.0999C6.43613 14.2281 6.55953 13.3607 6.8019 12.5233C6.8355 12.5261 6.8677 12.5333 6.902 12.5333C7.20787 12.5331 7.50131 12.4122 7.71867 12.1971C8.19884 12.5881 8.7144 12.9335 9.25866 13.2289C9.16972 13.651 9.32417 14.0874 9.65882 14.3596C9.24592 14.9559 8.76428 15.5015 8.22383 15.9852ZM4.33535 7.86664C4.33535 7.48004 4.64875 7.16665 5.03534 7.16665C5.42194 7.16665 5.73534 7.48004 5.73534 7.86664C5.73534 8.25324 5.42194 8.56664 5.03534 8.56664C4.64875 8.56664 4.33535 8.25324 4.33535 7.86664ZM4.57195 4.70359C5.77643 3.58616 7.359 2.96567 9.00199 2.96667C9.03279 2.96667 9.06313 2.96853 9.09393 2.969C9.79184 3.78181 10.343 4.70984 10.7228 5.71159C10.5184 5.83713 10.3575 6.02254 10.262 6.24265C10.1533 6.23868 10.0445 6.23332 9.93532 6.23332C8.54639 6.23095 7.17315 6.52688 5.90847 7.10108C5.6402 6.78597 5.22227 6.64095 4.81648 6.72215C4.66142 6.06026 4.57942 5.38336 4.57195 4.70359ZM6.20201 7.86664C6.20037 7.7448 6.17942 7.62399 6.13994 7.50871C7.33353 6.97342 8.6272 6.69776 9.93532 6.69998C10.0137 6.69998 10.0912 6.70441 10.1687 6.70675C10.1707 6.81471 10.1879 6.92185 10.2198 7.02501C9.00036 7.86684 7.98605 8.9723 7.252 10.2595C7.00727 10.1748 6.74027 10.1806 6.4995 10.276C6.16152 9.83683 5.86346 9.3683 5.60888 8.87604C5.97392 8.67092 6.20048 8.28536 6.20201 7.86664ZM6.902 10.6666C7.2886 10.6666 7.602 10.98 7.602 11.3666C7.602 11.7532 7.2886 12.0666 6.902 12.0666C6.51541 12.0666 6.20201 11.7532 6.20201 11.3666C6.20201 10.98 6.51541 10.6666 6.902 10.6666ZM9.70199 13.4666C9.70199 13.08 10.0154 12.7666 10.402 12.7666C10.7886 12.7666 11.102 13.08 11.102 13.4666C11.1011 13.5496 11.0853 13.6317 11.0553 13.709V13.7109C10.9374 14.0279 10.6093 14.2148 10.2765 14.1548C9.94366 14.0947 9.70168 13.8048 9.70199 13.4666ZM11.3353 7.39998C10.9487 7.39998 10.6353 7.08658 10.6353 6.69998C10.6353 6.31338 10.9487 5.99998 11.3353 5.99998C11.7219 5.99998 12.0353 6.31338 12.0353 6.69998C12.0353 7.08658 11.7219 7.39998 11.3353 7.39998ZM14.1185 5.44442C13.4741 5.55338 12.8425 5.72764 12.2334 5.96452C12.0141 5.69302 11.6843 5.53466 11.3353 5.53332C11.2768 5.53472 11.2184 5.54065 11.1608 5.55105C10.8148 4.63583 10.3322 3.77832 9.72929 3.00773C11.4586 3.20265 13.0386 4.07977 14.1185 5.44442ZM4.11998 5.16442C4.15373 5.75044 4.24057 6.33219 4.37945 6.90251C3.92984 7.20387 3.75053 7.77751 3.94848 8.28127C3.40908 8.69696 2.91467 9.16798 2.47336 9.68663C2.47172 9.62457 2.46869 9.5625 2.46869 9.49997C2.46764 7.90111 3.05549 6.35787 4.11998 5.16489V5.16442ZM2.52726 10.3612C3.01094 9.7313 3.57299 9.16565 4.19978 8.67794C4.41856 8.90484 4.72015 9.0331 5.03534 9.0333C5.0763 9.03145 5.11712 9.02732 5.15761 9.02094C5.42588 9.5491 5.74156 10.0518 6.10074 10.5229C5.82781 10.7784 5.69525 11.1501 5.74491 11.5207C5.79456 11.8912 6.0203 12.2149 6.35087 12.3896C6.09696 13.2706 5.9683 14.183 5.96867 15.0999C5.96867 15.1648 5.97007 15.2241 5.97124 15.285C4.0933 14.2986 2.8097 12.4635 2.52726 10.3612ZM8.85966 16.0295C9.31116 15.5874 9.71832 15.1022 10.0753 14.5808C10.1811 14.6139 10.2911 14.6316 10.402 14.6333C10.8084 14.6322 11.1848 14.4191 11.3948 14.0712C12.0308 14.2395 12.6821 14.3432 13.3389 14.3806C12.1457 15.446 10.6017 16.0343 9.00199 16.0333C8.95533 16.0333 8.90726 16.0307 8.85966 16.0295ZM13.7986 13.9295C13.0404 13.9214 12.286 13.8208 11.5521 13.6299C11.5615 13.576 11.5671 13.5214 11.5686 13.4666C11.5673 13.1192 11.4103 12.7906 11.1407 12.5713C11.5788 11.4432 11.803 10.2435 11.802 9.0333C11.8016 8.61979 11.7748 8.20673 11.7217 7.79664C12.0667 7.67429 12.3341 7.39675 12.4434 7.04741C13.5316 7.34655 14.5548 7.84499 15.4611 8.51741C15.7596 10.4808 15.1477 12.4733 13.7986 13.9307V13.9295Z" fill="#5C6480" stroke="#5C6480" stroke-width="0.3"/>
</svg>
