<svg width="25" height="24" viewBox="0 0 25 24" fill="none" xmlns="http://www.w3.org/2000/svg">
<path d="M16.0018 14.5275V9.47263C16.0051 9.35316 15.9292 9.24565 15.8149 9.20773L12.0843 8.01358C12.029 7.99564 11.9693 7.99564 11.914 8.01358L8.18806 9.20787C8.07403 9.24593 7.99851 9.35344 8.00207 9.47263V14.5275C7.99892 14.6469 8.07471 14.7545 8.18902 14.7924L11.9196 15.9867C11.9469 15.9955 11.9752 16.0001 12.0039 16.0001C12.0328 16.0001 12.0616 15.9955 12.089 15.9867L15.8152 14.7924C15.9295 14.7545 16.0053 14.6469 16.0018 14.5275ZM12.002 8.57097L14.8218 9.47263L12.002 10.3746L9.18214 9.47263L12.002 8.57097ZM8.56346 9.85496L11.6862 10.8584V15.3282L8.56346 14.3248V9.85496ZM12.2476 15.3507V10.881L15.4405 9.8551V14.3248L12.2476 15.3507Z" fill="#5C6480"/>
<path d="M21.002 8.77519C21.0022 8.32545 20.7604 7.91017 20.3686 7.68705C19.9766 7.46407 19.4948 7.46741 19.1062 7.69606L16.3059 4.90608C16.5644 4.48381 16.5492 3.94948 16.2674 3.54219C15.9854 3.13504 15.4896 2.93125 15.0015 3.0221C14.5135 3.11281 14.1248 3.48114 14.0094 3.96227H10.0322C9.91729 3.48274 9.53087 3.11484 9.04495 3.02239C8.5589 2.92995 8.06365 3.1301 7.77948 3.53376C7.49546 3.93742 7.47533 4.46957 7.72799 4.89328L4.90106 7.69766C4.48108 7.44953 3.95491 7.46596 3.55156 7.7401C3.14807 8.0141 2.94034 8.4961 3.01868 8.97636C3.09701 9.45648 3.44726 9.84807 3.91698 9.98078V13.9704C3.31306 14.1408 2.92765 14.7289 3.01401 15.3484C3.10037 15.9679 3.63209 16.429 4.25979 16.4288C4.48181 16.429 4.70004 16.3701 4.89172 16.2583L7.73586 19.0929C7.47723 19.5152 7.49211 20.0497 7.77379 20.457C8.05548 20.8642 8.55146 21.0683 9.03956 20.9776C9.52751 20.8871 9.91642 20.5187 10.0321 20.0376H14.0093C14.1246 20.5205 14.5154 20.89 15.0054 20.9795C15.4954 21.0691 15.9923 20.8621 16.2724 20.4514C16.5524 20.0409 16.5628 19.5044 16.2989 19.0833L19.1152 16.2602C19.5406 16.505 20.07 16.4807 20.4708 16.1978C20.8717 15.915 21.0707 15.4254 20.9801 14.9443C20.8895 14.4633 20.5261 14.0788 20.0497 13.9599V9.99081C20.609 9.85054 21.0012 9.34979 21.002 8.77519ZM20.4044 8.77519C20.4044 9.13858 20.1089 9.43308 19.7442 9.43308C19.3797 9.43308 19.084 9.13858 19.084 8.77519C19.084 8.41194 19.3797 8.1173 19.7442 8.1173C20.1086 8.11774 20.404 8.41209 20.4044 8.77519ZM15.2323 3.59612C15.597 3.59612 15.8925 3.89076 15.8925 4.254C15.8925 4.6174 15.5968 4.91189 15.2323 4.91189C14.8676 4.91189 14.572 4.6174 14.572 4.254C14.5725 3.8909 14.8679 3.59655 15.2323 3.59612ZM8.80907 3.59612C9.17376 3.59612 9.46931 3.89076 9.46931 4.254C9.46931 4.6174 9.17362 4.91189 8.80907 4.91189C8.44438 4.91189 8.14884 4.6174 8.14884 4.254C8.14928 3.8909 8.44467 3.59655 8.80907 3.59612ZM3.59956 8.77519C3.59956 8.4118 3.89525 8.1173 4.25979 8.1173C4.62448 8.11745 4.92002 8.41194 4.92002 8.77519C4.92002 9.13858 4.62433 9.43308 4.25979 9.43308C3.89525 9.43264 3.59999 9.13829 3.59956 8.77519ZM3.59956 15.1756C3.60131 14.8181 3.88795 14.5267 4.24666 14.5178H4.25979C4.62448 14.5178 4.92002 14.8124 4.92002 15.1757C4.92002 15.5391 4.62433 15.8336 4.25964 15.8336C3.8951 15.8334 3.59956 15.5389 3.59956 15.1756ZM8.80907 20.4038C8.44453 20.4038 8.14884 20.1093 8.14884 19.7459C8.14884 19.3825 8.44453 19.088 8.80907 19.088C9.17376 19.088 9.46931 19.3826 9.46931 19.7459C9.46887 20.1091 9.17347 20.4033 8.80907 20.4038ZM14.0122 19.4422H10.0293C9.93275 19.0564 9.65807 18.7391 9.2893 18.5875C8.92038 18.4358 8.50113 18.4675 8.15963 18.6731L5.3222 15.8451C5.54321 15.4977 5.5788 15.0642 5.41761 14.6856C5.25641 14.3069 4.91886 14.0313 4.51449 13.9482V10.0026C4.91696 9.91988 5.2535 9.64631 5.41556 9.26998C5.57778 8.89366 5.54496 8.46209 5.32775 8.1144L8.14636 5.31845C8.48756 5.52995 8.90973 5.566 9.282 5.41555C9.65442 5.26511 9.93217 4.94619 10.0293 4.55765H14.0122C14.1086 4.94372 14.3834 5.26104 14.7526 5.41264C15.1217 5.5644 15.5411 5.53227 15.8826 5.3263L18.6782 8.11134C18.4633 8.45322 18.4268 8.87738 18.5803 9.25065C18.7337 9.62393 19.0583 9.90054 19.4522 9.99401V13.9567C19.0566 14.0505 18.7308 14.3294 18.5782 14.705C18.4256 15.0806 18.465 15.5067 18.6838 15.8483L15.8716 18.6673C15.53 18.4657 15.1129 18.4369 14.7467 18.5896C14.3804 18.7422 14.108 19.0583 14.0122 19.4422ZM15.2323 20.4038C14.8677 20.4038 14.572 20.1093 14.572 19.7459C14.572 19.3825 14.8677 19.088 15.2323 19.088C15.597 19.088 15.8925 19.3826 15.8925 19.7459C15.8921 20.1091 15.5967 20.4033 15.2323 20.4038ZM20.4044 15.1756C20.4044 15.5389 20.1089 15.8334 19.7442 15.8334C19.3797 15.8334 19.084 15.5389 19.084 15.1756C19.084 14.8123 19.3797 14.5177 19.7442 14.5177C20.1086 14.5181 20.404 14.8124 20.4044 15.1756Z" fill="#5C6480"/>
</svg>
