<svg width="29" height="29" viewBox="0 0 29 29" fill="none" xmlns="http://www.w3.org/2000/svg">
<path d="M14.002 9.5C14.5542 9.5 15.002 9.05228 15.002 8.5C15.002 7.94772 14.5542 7.5 14.002 7.5C13.4497 7.5 13.002 7.94772 13.002 8.5C13.002 9.05228 13.4497 9.5 14.002 9.5Z" fill="#5C6480"/>
<path d="M21.002 9.5C21.5542 9.5 22.002 9.05228 22.002 8.5C22.002 7.94772 21.5542 7.5 21.002 7.5C20.4497 7.5 20.002 7.94772 20.002 8.5C20.002 9.05228 20.4497 9.5 21.002 9.5Z" fill="#5C6480"/>
<path d="M7.00195 9.5C7.55424 9.5 8.00195 9.05228 8.00195 8.5C8.00195 7.94772 7.55424 7.5 7.00195 7.5C6.44967 7.5 6.00195 7.94772 6.00195 8.5C6.00195 9.05228 6.44967 9.5 7.00195 9.5Z" fill="#5C6480"/>
<path d="M14.002 15.5C14.5542 15.5 15.002 15.0523 15.002 14.5C15.002 13.9477 14.5542 13.5 14.002 13.5C13.4497 13.5 13.002 13.9477 13.002 14.5C13.002 15.0523 13.4497 15.5 14.002 15.5Z" fill="#5C6480"/>
<path d="M21.002 15.5C21.5542 15.5 22.002 15.0523 22.002 14.5C22.002 13.9477 21.5542 13.5 21.002 13.5C20.4497 13.5 20.002 13.9477 20.002 14.5C20.002 15.0523 20.4497 15.5 21.002 15.5Z" fill="#5C6480"/>
<path d="M7.00195 15.5C7.55424 15.5 8.00195 15.0523 8.00195 14.5C8.00195 13.9477 7.55424 13.5 7.00195 13.5C6.44967 13.5 6.00195 13.9477 6.00195 14.5C6.00195 15.0523 6.44967 15.5 7.00195 15.5Z" fill="#5C6480"/>
<path d="M14.002 21.5C14.5542 21.5 15.002 21.0523 15.002 20.5C15.002 19.9477 14.5542 19.5 14.002 19.5C13.4497 19.5 13.002 19.9477 13.002 20.5C13.002 21.0523 13.4497 21.5 14.002 21.5Z" fill="#5C6480"/>
<path d="M21.002 21.5C21.5542 21.5 22.002 21.0523 22.002 20.5C22.002 19.9477 21.5542 19.5 21.002 19.5C20.4497 19.5 20.002 19.9477 20.002 20.5C20.002 21.0523 20.4497 21.5 21.002 21.5Z" fill="#5C6480"/>
<path d="M7.00195 21.5C7.55424 21.5 8.00195 21.0523 8.00195 20.5C8.00195 19.9477 7.55424 19.5 7.00195 19.5C6.44967 19.5 6.00195 19.9477 6.00195 20.5C6.00195 21.0523 6.44967 21.5 7.00195 21.5Z" fill="#5C6480"/>
</svg>
