<svg width="19" height="19" viewBox="0 0 19 19" fill="none" xmlns="http://www.w3.org/2000/svg">
<g clip-path="url(#clip0_20_106)">
<path d="M16.966 13.498C16.855 13.0947 16.5159 12.7946 16.1011 12.7325V6.66981H16.6309C16.7771 6.66981 16.8957 6.55154 16.8957 6.40566V3.76415C16.8957 3.61815 16.7771 3.5 16.6309 3.5H4.9754C4.82911 3.5 4.71051 3.61815 4.71051 3.76415V6.40566C4.71051 6.55154 4.82911 6.66981 4.9754 6.66981H5.5052V11.9528H5.2403C4.58284 11.9513 3.93884 12.1392 3.38602 12.494V11.1604C3.38602 11.0144 3.26741 10.8962 3.12113 10.8962H1.26685C1.12056 10.8962 1.00195 11.0144 1.00195 11.1604V17.2358C1.00195 17.3817 1.12056 17.5 1.26685 17.5H3.12113C3.26741 17.5 3.38602 17.3817 3.38602 17.2358V15.9023C3.93897 16.2569 4.58284 16.4448 5.2403 16.4434H9.58988C9.89125 16.4429 10.1912 16.4034 10.4824 16.326L16.2176 14.794C16.7819 14.6406 17.1163 14.0618 16.966 13.498ZM5.2403 4.0283H16.366V6.14151H5.2403V4.0283ZM6.03499 6.66981H15.5713V12.7779L12.4969 13.6C12.3703 13.299 12.112 13.0729 11.7962 12.9866L8.22698 12.032C8.02598 11.9793 7.81903 11.9526 7.61118 11.9528H6.03499V6.66981ZM2.85623 16.9717H1.53175V11.4245H2.85623V16.9717ZM16.0801 14.2836L10.3459 15.8157C10.0992 15.8813 9.84521 15.9147 9.58988 15.9151H5.2403C4.60962 15.9165 3.99562 15.7125 3.49196 15.3339L3.38602 15.2547V13.1415L3.49196 13.0622C3.99562 12.6836 4.60962 12.4795 5.2403 12.4811H7.61118C7.77298 12.481 7.93428 12.5019 8.09091 12.5432L11.659 13.497C11.8698 13.5549 12.0241 13.7351 12.0482 13.9519C12.051 13.9627 12.0545 13.9734 12.0588 13.9839C12.0557 13.9952 12.0534 14.0067 12.0518 14.0184C12.0521 14.0614 12.0463 14.1042 12.0344 14.1455C11.972 14.3757 11.7629 14.5358 11.5237 14.5362C11.477 14.5366 11.4307 14.5306 11.3857 14.5188L9.13407 13.9167C9.04172 13.8893 8.94174 13.9141 8.87293 13.9814C8.80424 14.0488 8.77747 14.1479 8.80321 14.2405C8.82895 14.333 8.90306 14.4045 8.99684 14.4268L11.2485 15.0291C11.3384 15.0527 11.4311 15.0646 11.5242 15.0645C12.0005 15.0642 12.4179 14.7465 12.5437 14.2884C12.5585 14.2354 12.5684 14.1812 12.5737 14.1265L15.8031 13.263C15.8261 13.2572 15.851 13.2513 15.8746 13.2474C16.1383 13.2135 16.3863 13.3797 16.4544 13.6359C16.4663 13.6805 16.4723 13.7266 16.4719 13.7727C16.4723 14.0119 16.3116 14.2213 16.0801 14.2836Z" fill="#2655FF" stroke="#2655FF" stroke-width="0.4"/>
<path d="M9.2627 9H11.7627C11.9008 9 12.0127 8.83209 12.0127 8.625C12.0127 8.41772 11.9008 8.25 11.7627 8.25H9.2627C9.12463 8.25 9.0127 8.41772 9.0127 8.625C9.0127 8.83209 9.12463 9 9.2627 9Z" fill="#2655FF"/>
</g>
<defs>
<clipPath id="clip0_20_106">
<rect width="18" height="18" fill="white" transform="translate(0.00195312 0.5)"/>
</clipPath>
</defs>
</svg>
