<svg width="24" height="24" viewBox="0 0 24 24" fill="none" xmlns="http://www.w3.org/2000/svg">
<path d="M20.9741 15.4265C20.8493 14.9655 20.4677 14.6225 20.0011 14.5516V7.62283H20.5971C20.7617 7.62283 20.8951 7.48765 20.8951 7.32094V4.30207C20.8951 4.13521 20.7617 4.00018 20.5971 4.00018H7.48471C7.32014 4.00018 7.1867 4.13521 7.1867 4.30207V7.32094C7.1867 7.48765 7.32014 7.62283 7.48471 7.62283H8.08073V13.6606H7.78272C7.04308 13.6588 6.31858 13.8736 5.69666 14.2791V12.7549C5.69666 12.588 5.56322 12.453 5.39865 12.453H3.31259C3.14801 12.453 3.01458 12.588 3.01458 12.7549V19.6983C3.01458 19.865 3.14801 20.0002 3.31259 20.0002H5.39865C5.56322 20.0002 5.69666 19.865 5.69666 19.6983V18.1743C6.31872 18.5795 7.04308 18.7943 7.78272 18.7926H12.676C13.015 18.792 13.3525 18.7469 13.68 18.6585L20.1322 16.9076C20.7671 16.7323 21.1432 16.0708 20.9741 15.4265ZM7.78272 4.60396H20.2991V7.01905H7.78272V4.60396ZM8.67675 7.62283H19.4051V14.6035L15.9464 15.5431C15.8039 15.199 15.5133 14.9406 15.1581 14.842L11.1427 13.7511C10.9166 13.6908 10.6838 13.6603 10.45 13.6606H8.67675V7.62283ZM5.10064 19.3964H3.6106V13.0568H5.10064V19.3964ZM19.9775 16.3243L13.5265 18.0752C13.249 18.1502 12.9632 18.1884 12.676 18.1889H7.78272C7.0732 18.1905 6.38246 17.9573 5.81583 17.5247L5.69666 17.4341V15.0191L5.81583 14.9284C6.38246 14.4958 7.0732 14.2624 7.78272 14.2643H10.45C10.632 14.2642 10.8134 14.2881 10.9897 14.3352L15.0038 15.4253C15.2409 15.4915 15.4145 15.6974 15.4416 15.9452C15.4448 15.9576 15.4487 15.9698 15.4535 15.9818C15.45 15.9947 15.4474 16.0078 15.4457 16.0213C15.446 16.0703 15.4394 16.1193 15.426 16.1665C15.3559 16.4296 15.1206 16.6125 14.8516 16.613C14.799 16.6134 14.7469 16.6066 14.6963 16.5931L12.1632 15.905C12.0593 15.8737 11.9468 15.902 11.8694 15.979C11.7922 16.0559 11.762 16.1693 11.791 16.2751C11.82 16.3808 11.9033 16.4624 12.0088 16.488L14.5419 17.1763C14.643 17.2033 14.7474 17.2169 14.8521 17.2167C15.3879 17.2164 15.8575 16.8534 15.9991 16.3298C16.0156 16.2692 16.0269 16.2073 16.0328 16.1448L19.6658 15.1579C19.6917 15.1513 19.7198 15.1445 19.7463 15.1401C20.043 15.1013 20.3219 15.2913 20.3986 15.5841C20.412 15.6351 20.4187 15.6877 20.4183 15.7405C20.4187 16.0137 20.238 16.2531 19.9775 16.3243Z" fill="#5C6480" stroke="#5C6480" stroke-width="0.2"/>
<path d="M12.3479 10.0002H15.6813C15.8653 10.0002 16.0146 9.7763 16.0146 9.50018C16.0146 9.22382 15.8653 9.00018 15.6813 9.00018H12.3479C12.1638 9.00018 12.0146 9.22382 12.0146 9.50018C12.0146 9.7763 12.1638 10.0002 12.3479 10.0002Z" fill="#5C6480"/>
</svg>
