<svg width="19" height="19" viewBox="0 0 19 19" fill="none" xmlns="http://www.w3.org/2000/svg">
<path d="M12.2103 15.0417C12.0493 15.0417 11.9186 14.911 11.9186 14.75V14.3125C11.9186 14.1515 12.0493 14.0208 12.2103 14.0208C12.3713 14.0208 12.5019 14.1515 12.5019 14.3125V14.75C12.5019 14.911 12.3713 15.0417 12.2103 15.0417Z" fill="#5C6480" stroke="#5C6480" stroke-width="0.4"/>
<path d="M12.3561 14.4583H11.3353C11.1743 14.4583 11.0436 14.3277 11.0436 14.1667C11.0436 14.0057 11.1743 13.875 11.3353 13.875H12.3561C12.5976 13.875 12.7936 13.679 12.7936 13.4375C12.7936 13.196 12.5976 13 12.3561 13H12.0644C11.5015 13 11.0436 12.5421 11.0436 11.9792C11.0436 11.4163 11.5015 10.9583 12.0644 10.9583H13.0853C13.2463 10.9583 13.3769 11.089 13.3769 11.25C13.3769 11.411 13.2463 11.5417 13.0853 11.5417H12.0644C11.8229 11.5417 11.6269 11.7377 11.6269 11.9792C11.6269 12.2207 11.8229 12.4167 12.0644 12.4167H12.3561C12.919 12.4167 13.3769 12.8746 13.3769 13.4375C13.3769 14.0004 12.919 14.4583 12.3561 14.4583Z" fill="#5C6480" stroke="#5C6480" stroke-width="0.4"/>
<path d="M12.2103 11.3958C12.0493 11.3958 11.9186 11.2652 11.9186 11.1042V10.6667C11.9186 10.5057 12.0493 10.375 12.2103 10.375C12.3713 10.375 12.5019 10.5057 12.5019 10.6667V11.1042C12.5019 11.2652 12.3713 11.3958 12.2103 11.3958Z" fill="#5C6480" stroke="#5C6480" stroke-width="0.4"/>
<path d="M12.2103 16.5C10.1196 16.5 8.41861 14.799 8.41861 12.7083C8.41861 10.6177 10.1196 8.91666 12.2103 8.91666C14.3009 8.91666 16.0019 10.6177 16.0019 12.7083C16.0019 14.799 14.3009 16.5 12.2103 16.5ZM12.2103 9.5C10.441 9.5 9.00194 10.9391 9.00194 12.7083C9.00194 14.4776 10.441 15.9167 12.2103 15.9167C13.9795 15.9167 15.4186 14.4776 15.4186 12.7083C15.4186 10.9391 13.9795 9.5 12.2103 9.5Z" fill="#5C6480" stroke="#5C6480" stroke-width="0.4"/>
<path d="M7.54362 16.5C7.15045 16.5 6.78412 16.3466 6.51229 16.0677L2.43129 11.9867C2.15537 11.7178 2.00195 11.3515 2.00195 10.9583C2.00195 10.585 2.14895 10.2198 2.40504 9.95617L8.97862 3.13758C9.3677 2.72692 9.89504 2.5 10.4603 2.5H14.5436C15.3475 2.5 16.002 3.1545 16.002 3.95833V8.04167C16.002 8.29425 15.9559 8.541 15.8614 8.7965C15.8054 8.94758 15.6374 9.02575 15.4863 8.96858C15.3352 8.91258 15.2582 8.74458 15.3142 8.5935C15.3842 8.4045 15.4186 8.22425 15.4186 8.04167V3.95833C15.4186 3.47592 15.026 3.08333 14.5436 3.08333H10.4603C10.0566 3.08333 9.67979 3.2455 9.40037 3.54067L2.82445 10.3616C2.6722 10.5185 2.58529 10.7355 2.58529 10.9583C2.58529 11.1928 2.67629 11.411 2.84137 11.572L6.92704 15.6577C7.20354 15.9406 7.66554 15.996 7.99395 15.7866C8.13045 15.7002 8.3107 15.7405 8.39645 15.877C8.48279 16.0129 8.44254 16.1932 8.30604 16.2795C8.07912 16.4242 7.81545 16.5 7.54362 16.5Z" fill="#5C6480" stroke="#5C6480" stroke-width="0.4"/>
<path d="M13.0853 6.58333C12.4419 6.58333 11.9186 6.06008 11.9186 5.41666C11.9186 4.77325 12.4419 4.25 13.0853 4.25C13.7287 4.25 14.2519 4.77325 14.2519 5.41666C14.2519 6.06008 13.7287 6.58333 13.0853 6.58333ZM13.0853 4.83333C12.7639 4.83333 12.5019 5.09525 12.5019 5.41666C12.5019 5.73808 12.7639 6 13.0853 6C13.4067 6 13.6686 5.73808 13.6686 5.41666C13.6686 5.09525 13.4067 4.83333 13.0853 4.83333Z" fill="#5C6480" stroke="#5C6480" stroke-width="0.4"/>
</svg>
